<svg width="32" height="32" viewBox="0 0 32 32" fill="none" xmlns="http://www.w3.org/2000/svg">
<g clip-path="url(#clip0_201_188)">
<circle cx="16" cy="16" r="16" fill="white"/>
<path d="M23.5833 14H22.695L20.8533 9.32C20.7009 8.9341 20.4239 8.60065 20.0597 8.36462C19.6955 8.12858 19.2617 8.00132 18.8167 8H17.0833C16.4875 8 16 8.45 16 9C16 9.55 16.4875 10 17.0833 10H18.8167L20.3983 14H15.1875L14.7975 13H14.895C15.4908 13 15.9783 12.55 15.9783 12C15.9783 11.45 15.4908 11 14.895 11H11.6667C11.0708 11 10.5833 11.45 10.5833 12C10.5833 12.55 11.0708 13 11.6667 13H12.4792L14.4508 18H13.725C13.2483 15.77 11.2225 14.12 8.6875 14.01C5.65417 13.87 3 16.2 3 19C3 21.8 5.38333 24 8.41667 24C11.0817 24 13.2375 22.31 13.725 20H18.275C18.7517 22.23 20.7775 23.88 23.3125 23.99C26.3458 24.12 29 21.8 29 18.99C29 16.2 26.6167 14 23.5833 14ZM9.5 20H11.4717C11.0167 21.23 9.73833 22.08 8.2 21.99C6.58583 21.9 5.2425 20.64 5.16667 19.14C5.09083 17.39 6.5425 16 8.41667 16C9.8575 16 11.0383 16.83 11.4717 18H9.5C8.90417 18 8.41667 18.45 8.41667 19C8.41667 19.55 8.90417 20 9.5 20ZM18.275 18H16.7583L15.9675 16H19.25C18.7733 16.58 18.4267 17.25 18.275 18ZM23.4533 22C21.785 21.94 20.3767 20.63 20.3333 19.08C20.3117 18.12 20.7558 17.28 21.4708 16.72L22.1425 18.42C22.3483 18.94 22.9658 19.21 23.5292 19.02C24.0925 18.83 24.385 18.26 24.1792 17.74L23.4967 16.01L23.5075 16C23.9418 15.9863 24.3747 16.0541 24.7799 16.1991C25.1851 16.3441 25.5543 16.5634 25.8651 16.8438C26.1759 17.1242 26.422 17.4598 26.5884 17.8304C26.7548 18.201 26.8381 18.5989 26.8333 19C26.8333 20.72 25.3383 22.06 23.4533 22Z" fill="url(#paint0_linear_201_188)"/>
</g>
<defs>
<linearGradient id="paint0_linear_201_188" x1="16" y1="8" x2="16" y2="24" gradientUnits="userSpaceOnUse">
<stop stop-color="#FFB60D"/>
<stop offset="1" stop-color="#E59317"/>
</linearGradient>
<clipPath id="clip0_201_188">
<rect width="32" height="32" fill="white"/>
</clipPath>
</defs>
</svg>
